<svg width="20" height="20" viewBox="0 0 20 20" fill="none" xmlns="http://www.w3.org/2000/svg">
    <path fill-rule="evenodd" clip-rule="evenodd" d="M20 10C20 12.6522 18.9464 15.1957 17.0711 17.0711C15.1957 18.9464 12.6522 20 10 20C7.34784 20 4.8043 18.9464 2.92893 17.0711C1.05357 15.1957 0 12.6522 0 10C0 7.34784 1.05357 4.8043 2.92893 2.92893C4.8043 1.05357 7.34784 0 10 0C12.6522 0 15.1957 1.05357 17.0711 2.92893C18.9464 4.8043 20 7.34784 20 10ZM6.87 7.54125C6.82971 7.5418 6.78973 7.53412 6.7525 7.51868C6.71528 7.50324 6.6816 7.48038 6.65352 7.45148C6.62543 7.42257 6.60354 7.38825 6.58918 7.3506C6.57482 7.31295 6.5683 7.27276 6.57 7.2325C6.6875 5.11375 8.42125 4.375 10.0063 4.375C11.7513 4.375 13.3463 5.2875 13.3463 7.175C13.3463 8.525 12.5525 9.1675 11.7912 9.74625C10.87 10.445 10.5288 10.7063 10.5288 11.6038V11.735C10.5288 11.8179 10.4958 11.8974 10.4372 11.956C10.3786 12.0146 10.2991 12.0475 10.2163 12.0475H9.20375C9.12173 12.0475 9.04299 12.0153 8.98453 11.9577C8.92606 11.9002 8.89256 11.822 8.89125 11.74L8.88625 11.4688C8.83875 10.31 9.505 9.59625 10.3463 8.985C11.0838 8.43 11.5525 8.065 11.5525 7.27125C11.5525 6.24 10.7675 5.81125 9.91 5.81125C8.90625 5.81125 8.34375 6.40875 8.2325 7.22875C8.21 7.4 8.0725 7.54125 7.9 7.54125H6.86875H6.87ZM9.77625 15.595C9.04625 15.595 8.515 15.1025 8.515 14.4362C8.515 13.7463 9.04625 13.2613 9.7775 13.2613C10.5387 13.2613 11.0625 13.7463 11.0625 14.4362C11.0625 15.1025 10.5375 15.595 9.77625 15.595Z" fill="#A1A1A1"/>
</svg>