<svg width="19" height="18" viewBox="0 0 19 18" fill="none" xmlns="http://www.w3.org/2000/svg">
    <path fill-rule="evenodd" clip-rule="evenodd" d="M9.47095 0C4.24159 0 0 4.13039 0 9.22266C0 13.2965 2.73089 16.7479 6.44954 17.9927C6.91437 18.0493 7.08868 17.7664 7.08868 17.54C7.08868 17.3137 7.08868 16.7479 7.08868 15.9558C4.47401 16.5216 3.89297 14.711 3.89297 14.711C3.48624 13.636 2.84709 13.3531 2.84709 13.3531C1.97554 12.7873 2.9052 12.7873 2.9052 12.7873C3.83486 12.8438 4.3578 13.7491 4.3578 13.7491C5.22936 15.1636 6.56575 14.7676 7.08868 14.5413C7.14679 13.9189 7.43731 13.5228 7.66972 13.2965C5.57798 13.0702 3.37003 12.278 3.37003 8.71344C3.37003 7.69498 3.71865 6.90285 4.3578 6.22388C4.29969 6.05414 3.95107 5.09227 4.47401 3.84749C4.47401 3.84749 5.28746 3.62117 7.08868 4.80936C7.84404 4.58304 8.65749 4.52646 9.47095 4.52646C10.2844 4.52646 11.0979 4.63962 11.8532 4.80936C13.6544 3.62117 14.4679 3.84749 14.4679 3.84749C14.9908 5.09227 14.6422 6.05414 14.5841 6.28046C15.1651 6.90285 15.5719 7.75156 15.5719 8.77002C15.5719 12.3346 13.3639 13.0702 11.2722 13.2965C11.6208 13.5794 11.9113 14.1452 11.9113 14.9939C11.9113 16.2387 11.9113 17.2006 11.9113 17.54C11.9113 17.7664 12.0856 18.0493 12.5505 17.9927C16.3272 16.7479 19 13.2965 19 9.22266C18.9419 4.13039 14.7003 0 9.47095 0Z" fill="white"/>
</svg>
