<svg xmlns="http://www.w3.org/2000/svg" width="223" height="53" viewBox="0 0 223 53" fill="none">
<path d="M49.5505 35.6872C49.3275 35.4664 49.2383 35.1572 49.2383 34.8039V16.828C49.2383 16.4747 49.3275 16.2097 49.5505 15.9889C49.7735 15.768 50.0857 15.6797 50.4425 15.6797H57.3109C59.4517 15.6797 61.1019 16.2097 62.3061 17.2255C63.5103 18.2414 64.0901 19.6989 64.0901 21.598C64.0901 23.4972 63.5103 24.9547 62.3061 26.0147C61.1019 27.0747 59.4517 27.6047 57.3109 27.6047H51.6021V34.8039C51.6021 35.1572 51.5129 35.4664 51.2899 35.6872C51.0669 35.908 50.7993 35.9963 50.4425 35.9963C50.0411 36.0405 49.7735 35.908 49.5505 35.6872ZM57.0879 25.6614C60.2099 25.6614 61.7263 24.2922 61.7263 21.6422C61.7263 18.9922 60.1653 17.6672 57.0879 17.6672H51.6021V25.7055H57.0879V25.6614Z" fill="white"/>
<path d="M78.5417 32.9043C78.6755 33.081 78.7647 33.3018 78.7647 33.5668C78.7647 34.0527 78.4079 34.4943 77.7389 34.8918C77.0253 35.2893 76.3117 35.5985 75.5535 35.7752C74.7953 35.996 74.0371 36.0843 73.2789 36.0843C71.0935 36.0843 69.3987 35.466 68.1053 34.1852C66.8565 32.9043 66.1875 31.1377 66.1875 28.8852C66.1875 27.4718 66.4551 26.191 67.0349 25.0868C67.6147 23.9827 68.3729 23.1435 69.3987 22.5252C70.4245 21.9068 71.5841 21.5977 72.8775 21.5977C74.7061 21.5977 76.1779 22.1718 77.2483 23.3643C78.3187 24.5568 78.8539 26.1468 78.8539 28.1785C78.8539 28.576 78.7647 28.841 78.6309 29.0177C78.4971 29.1943 78.2295 29.2827 77.8727 29.2827H68.5513C68.7297 32.551 70.2907 34.2293 73.2789 34.2293C74.0371 34.2293 74.6615 34.141 75.1967 33.9202C75.7319 33.6993 76.3117 33.4343 76.9361 33.081C77.4267 32.816 77.7835 32.6393 77.9619 32.6393C78.1849 32.6393 78.4079 32.7277 78.5417 32.9043ZM69.9785 24.5568C69.2203 25.3077 68.8189 26.4118 68.6851 27.781H76.8915C76.8469 26.3677 76.4901 25.2635 75.8211 24.5127C75.1521 23.7618 74.2155 23.3643 72.9667 23.3643C71.7179 23.4085 70.6921 23.7618 69.9785 24.5568Z" fill="white"/>
<path d="M90.5368 22.6145C90.5368 22.9236 90.4476 23.1445 90.2692 23.3653C90.0908 23.542 89.7786 23.6745 89.3772 23.6745L88.5298 23.7628C87.2364 23.8953 86.2552 24.337 85.6308 25.132C85.0064 25.927 84.6942 26.8545 84.6942 27.9145V34.8928C84.6942 35.2903 84.605 35.5553 84.382 35.732C84.159 35.9086 83.8914 35.997 83.5346 35.997C83.1778 35.997 82.9102 35.9086 82.6872 35.6878C82.4642 35.467 82.375 35.202 82.375 34.8486V22.7911C82.375 22.4378 82.5088 22.1286 82.7318 21.952C82.9548 21.7311 83.2224 21.6428 83.5792 21.6428C83.8914 21.6428 84.159 21.7311 84.382 21.952C84.605 22.1728 84.6942 22.4378 84.6942 22.7911V24.3811C85.0956 23.542 85.6754 22.8795 86.4336 22.482C87.1918 22.0403 88.0392 21.7753 88.9758 21.687L89.3772 21.6428C90.1354 21.5986 90.5368 21.9078 90.5368 22.6145Z" fill="white"/>
<path d="M94.5979 35.201C93.5721 34.6268 92.8139 33.7877 92.2341 32.6835C91.6989 31.5793 91.3867 30.3427 91.3867 28.8852C91.3867 27.4718 91.6543 26.191 92.2341 25.0868C92.8139 23.9827 93.6167 23.0993 94.6425 22.5252C95.6683 21.9068 96.8279 21.5977 98.1659 21.5977C98.8795 21.5977 99.6377 21.686 100.351 21.9068C101.065 22.1277 101.689 22.3927 102.225 22.7902C102.581 23.011 102.804 23.2318 102.983 23.4527C103.117 23.6735 103.206 23.8943 103.206 24.2035C103.206 24.4685 103.117 24.6893 102.983 24.866C102.849 25.0427 102.671 25.131 102.403 25.131C102.269 25.131 102.135 25.0868 101.957 24.9985C101.823 24.9102 101.689 24.866 101.556 24.7777C101.466 24.6893 101.377 24.6452 101.333 24.6452C100.842 24.336 100.351 24.071 99.9053 23.8502C99.4593 23.6735 98.8795 23.5852 98.2551 23.5852C96.8279 23.5852 95.7575 24.071 94.9547 24.9985C94.1519 25.926 93.7951 27.251 93.7951 28.9293C93.7951 30.6077 94.1965 31.8885 94.9547 32.816C95.7575 33.7435 96.8279 34.1852 98.2551 34.1852C98.9241 34.1852 99.4593 34.0968 99.9499 33.9202C100.441 33.7435 100.887 33.4785 101.377 33.1252C101.6 32.9927 101.779 32.8602 102.002 32.7718C102.18 32.6835 102.358 32.6393 102.492 32.6393C102.715 32.6393 102.894 32.7277 103.027 32.9043C103.161 33.081 103.25 33.3018 103.25 33.5668C103.25 33.8318 103.206 34.0527 103.027 34.2293C102.894 34.4502 102.626 34.671 102.269 34.8918C101.734 35.2452 101.065 35.5543 100.307 35.7752C99.5485 35.996 98.7903 36.0843 97.9875 36.0843C96.7833 36.0843 95.5791 35.7752 94.5979 35.201Z" fill="white"/>
<path d="M117.565 32.9043C117.699 33.081 117.788 33.3018 117.788 33.5668C117.788 34.0527 117.431 34.4943 116.762 34.8918C116.049 35.2893 115.335 35.5985 114.577 35.7752C113.819 35.996 113.061 36.0843 112.302 36.0843C110.117 36.0843 108.422 35.466 107.129 34.1852C105.88 32.9043 105.211 31.1377 105.211 28.8852C105.211 27.4718 105.479 26.191 106.058 25.0868C106.638 23.9827 107.396 23.1435 108.422 22.5252C109.448 21.9068 110.608 21.5977 111.901 21.5977C113.73 21.5977 115.201 22.1718 116.272 23.3643C117.342 24.5568 117.877 26.1468 117.877 28.1785C117.877 28.576 117.788 28.841 117.654 29.0177C117.521 29.1943 117.253 29.2827 116.896 29.2827H107.575C107.753 32.551 109.314 34.2293 112.302 34.2293C113.061 34.2293 113.685 34.141 114.22 33.9202C114.755 33.6993 115.335 33.4343 115.96 33.081C116.45 32.816 116.807 32.6393 116.985 32.6393C117.253 32.6393 117.431 32.7277 117.565 32.9043ZM109.002 24.5568C108.244 25.3077 107.842 26.4118 107.709 27.781H115.915C115.87 26.3677 115.514 25.2635 114.845 24.5127C114.176 23.7618 113.239 23.3643 111.99 23.3643C110.741 23.4085 109.716 23.7618 109.002 24.5568Z" fill="white"/>
<path d="M131.704 22.5252C132.641 23.1435 133.399 23.9827 133.89 25.0868C134.425 26.191 134.692 27.4718 134.692 28.9293C134.692 30.3868 134.425 31.6677 133.89 32.7276C133.354 33.7876 132.641 34.6268 131.704 35.2452C130.768 35.8193 129.653 36.1285 128.404 36.1285C127.289 36.1285 126.352 35.9076 125.505 35.4218C124.702 34.936 124.078 34.2735 123.632 33.3901V40.1035C123.632 40.4568 123.542 40.7218 123.319 40.8985C123.096 41.1193 122.829 41.2076 122.472 41.2076C122.115 41.2076 121.803 41.1193 121.625 40.8985C121.402 40.6776 121.312 40.4126 121.312 40.1035V22.7902C121.312 22.4368 121.402 22.1718 121.625 21.951C121.848 21.7302 122.115 21.6418 122.472 21.6418C122.829 21.6418 123.141 21.7302 123.319 21.951C123.498 22.1718 123.632 22.4368 123.632 22.7902V24.336C124.033 23.4527 124.657 22.7902 125.505 22.3043C126.308 21.8185 127.289 21.5977 128.404 21.5977C129.697 21.5977 130.768 21.9068 131.704 22.5252ZM131.169 32.816C131.927 31.8885 132.284 30.6077 132.284 28.9293C132.284 27.251 131.927 25.926 131.169 24.9985C130.411 24.071 129.34 23.5852 128.002 23.5852C126.62 23.5852 125.594 24.0268 124.836 24.9543C124.078 25.8818 123.721 27.1627 123.721 28.8852C123.721 30.6077 124.078 31.8885 124.836 32.816C125.594 33.7435 126.62 34.1852 128.002 34.1852C129.34 34.1852 130.411 33.6993 131.169 32.816Z" fill="white"/>
<path d="M145.707 35.1127C145.707 35.4219 145.573 35.6869 145.35 35.8636C145.127 36.0402 144.726 36.0844 144.28 36.0402L143.477 35.9961C141.916 35.8636 140.801 35.4219 140.043 34.6269C139.329 33.8319 138.928 32.5952 138.928 31.0052V23.7619H137.01C136.698 23.7619 136.43 23.6736 136.252 23.4969C136.074 23.3202 135.984 23.0994 135.984 22.8344C135.984 22.5694 136.074 22.3044 136.252 22.1277C136.43 21.9511 136.698 21.8627 137.01 21.8627H138.928V18.6386C138.928 18.2852 139.017 17.9761 139.24 17.7994C139.463 17.5786 139.731 17.4902 140.088 17.4902C140.444 17.4902 140.712 17.5786 140.935 17.7994C141.158 18.0202 141.247 18.2852 141.247 18.6386V21.8627H144.458C144.771 21.8627 144.994 21.9511 145.217 22.1277C145.395 22.3044 145.484 22.5252 145.484 22.8344C145.484 23.0994 145.395 23.3202 145.217 23.4969C145.038 23.6736 144.771 23.7619 144.458 23.7619H141.247V31.0494C141.247 32.1094 141.47 32.8602 141.916 33.3461C142.362 33.8319 142.987 34.0969 143.879 34.1411L144.681 34.1852C145.35 34.2736 145.707 34.5827 145.707 35.1127Z" fill="white"/>
<path d="M148.071 18.2409C147.803 17.9759 147.625 17.6226 147.625 17.1809C147.625 16.7392 147.759 16.4301 148.071 16.1651C148.339 15.9001 148.74 15.7676 149.186 15.7676C149.632 15.7676 150.033 15.9001 150.301 16.1651C150.569 16.4301 150.747 16.7834 150.747 17.1809C150.747 17.6226 150.613 17.9759 150.301 18.2409C150.033 18.5059 149.632 18.6384 149.186 18.6384C148.74 18.6384 148.339 18.5059 148.071 18.2409ZM148.339 35.7309C148.116 35.5101 148.026 35.2451 148.026 34.8918V22.7901C148.026 22.4367 148.116 22.1276 148.339 21.9509C148.562 21.7301 148.829 21.6417 149.186 21.6417C149.543 21.6417 149.81 21.7301 150.033 21.9509C150.256 22.1717 150.346 22.4367 150.346 22.7901V34.8918C150.346 35.2893 150.256 35.5543 150.033 35.7309C149.81 35.9076 149.543 35.9959 149.186 35.9959C148.829 35.9959 148.562 35.9518 148.339 35.7309Z" fill="white"/>
<path d="M155.386 35.5985C155.163 35.3777 155.074 35.1569 155.074 34.8035V16.7394C155.074 16.386 155.163 16.0769 155.386 15.856C155.609 15.6352 155.877 15.5469 156.234 15.5469C156.591 15.5469 156.903 15.6794 157.081 15.856C157.304 16.0769 157.393 16.386 157.393 16.7394V33.876H166.759C167.116 33.876 167.384 33.9644 167.562 34.141C167.741 34.3177 167.83 34.5385 167.83 34.8919C167.83 35.201 167.741 35.466 167.562 35.6427C167.384 35.8194 167.116 35.9077 166.759 35.9077H156.189C155.877 35.9077 155.609 35.7752 155.386 35.5985Z" fill="white"/>
<path d="M181.389 27.0739V34.8914C181.389 35.2448 181.3 35.5098 181.077 35.7306C180.854 35.9514 180.586 36.0398 180.229 36.0398C179.873 36.0398 179.605 35.9514 179.382 35.7306C179.159 35.5098 179.07 35.2448 179.07 34.8914V33.5223C178.713 34.3614 178.133 34.9798 177.375 35.4214C176.617 35.8631 175.769 36.0839 174.788 36.0839C173.896 36.0839 173.049 35.9073 172.291 35.5539C171.532 35.2006 170.908 34.6706 170.462 34.0523C170.016 33.3898 169.793 32.6831 169.793 31.8881C169.793 30.8281 170.061 30.0331 170.596 29.4589C171.131 28.8847 172.023 28.4431 173.272 28.1781C174.521 27.9131 176.215 27.7806 178.401 27.7806H179.025V26.8531C179.025 25.7047 178.802 24.8656 178.312 24.3356C177.821 23.8056 177.063 23.5406 175.992 23.5406C174.699 23.5406 173.361 23.8939 171.978 24.6006C171.443 24.9097 171.086 25.0864 170.863 25.0864C170.64 25.0864 170.462 24.9981 170.284 24.8214C170.15 24.6447 170.061 24.4239 170.061 24.1589C170.061 23.8939 170.15 23.6731 170.328 23.4522C170.507 23.2314 170.774 23.0547 171.131 22.8339C171.8 22.4364 172.558 22.1272 173.45 21.9506C174.298 21.7297 175.145 21.6414 175.992 21.6414C179.65 21.5972 181.389 23.4081 181.389 27.0739ZM177.999 33.0806C178.758 32.2856 179.114 31.3139 179.114 30.0772V29.2381H178.579C176.884 29.2381 175.591 29.3264 174.699 29.4589C173.807 29.5914 173.183 29.8564 172.826 30.1656C172.469 30.5189 172.246 31.0048 172.246 31.6231C172.246 32.3739 172.514 32.9923 173.093 33.4781C173.629 33.9639 174.342 34.2289 175.145 34.2289C176.305 34.2731 177.241 33.8756 177.999 33.0806Z" fill="white"/>
<path d="M196.015 22.481C196.952 23.0552 197.71 23.8944 198.201 24.9985C198.736 26.1027 199.003 27.3394 199.003 28.7969C199.003 30.2544 198.736 31.5352 198.201 32.6394C197.665 33.7435 196.952 34.5827 196.015 35.201C195.079 35.8194 193.964 36.1285 192.759 36.1285C191.644 36.1285 190.708 35.9077 189.86 35.4219C189.058 34.936 188.433 34.2735 187.987 33.3902V34.8919C187.987 35.2452 187.898 35.5102 187.675 35.731C187.452 35.9519 187.184 36.0402 186.828 36.0402C186.471 36.0402 186.159 35.9519 185.98 35.731C185.757 35.5102 185.668 35.2452 185.668 34.8919V16.651C185.668 16.3419 185.757 16.0769 185.98 15.856C186.203 15.6352 186.471 15.5469 186.828 15.5469C187.184 15.5469 187.497 15.6352 187.675 15.856C187.898 16.0769 187.987 16.3419 187.987 16.651V24.336C188.389 23.4527 189.013 22.7902 189.86 22.3044C190.663 21.8185 191.644 21.5977 192.759 21.5977C194.008 21.5977 195.079 21.9069 196.015 22.481ZM195.48 32.7719C196.238 31.8444 196.595 30.5194 196.595 28.7969C196.595 27.1185 196.238 25.8377 195.48 24.9102C194.722 23.9827 193.651 23.541 192.313 23.541C190.931 23.541 189.905 23.9827 189.147 24.9102C188.389 25.8377 188.032 27.1185 188.032 28.841C188.032 30.5635 188.389 31.8444 189.147 32.7719C189.905 33.6994 190.931 34.141 192.313 34.141C193.651 34.1852 194.722 33.6994 195.48 32.7719Z" fill="white"/>
<path d="M204.716 35.7752C203.913 35.5543 203.199 35.2893 202.575 34.8918C202.218 34.671 201.995 34.4502 201.817 34.2293C201.683 34.0085 201.594 33.7877 201.594 33.4785C201.594 33.2135 201.683 33.0368 201.817 32.8602C201.951 32.6835 202.129 32.5952 202.397 32.5952C202.62 32.5952 202.976 32.7277 203.422 33.0368C204.002 33.3902 204.582 33.6552 205.162 33.876C205.742 34.0968 206.455 34.1852 207.303 34.1852C208.328 34.1852 209.176 34.0085 209.711 33.6552C210.291 33.3018 210.558 32.7718 210.558 32.0652C210.558 31.6235 210.469 31.3143 210.246 31.0493C210.023 30.7843 209.666 30.5635 209.131 30.3427C208.596 30.1218 207.838 29.9452 206.857 29.7243C205.162 29.371 203.958 28.8852 203.199 28.2668C202.486 27.6485 202.084 26.8093 202.084 25.7935C202.084 24.9543 202.307 24.2477 202.798 23.6293C203.244 23.011 203.913 22.481 204.716 22.1277C205.519 21.7743 206.455 21.5977 207.526 21.5977C208.284 21.5977 208.997 21.686 209.711 21.9068C210.425 22.1277 211.049 22.3927 211.584 22.746C212.253 23.1877 212.565 23.6735 212.565 24.1593C212.565 24.4243 212.476 24.601 212.342 24.7777C212.209 24.9543 211.986 25.0427 211.807 25.0427C211.584 25.0427 211.227 24.866 210.781 24.5568C210.246 24.2035 209.711 23.9385 209.265 23.7618C208.774 23.5852 208.195 23.4968 207.481 23.4968C206.589 23.4968 205.831 23.7177 205.296 24.1152C204.76 24.5127 204.448 25.0427 204.448 25.7052C204.448 26.1027 204.537 26.456 204.76 26.721C204.983 26.986 205.296 27.2068 205.786 27.4277C206.277 27.6485 206.946 27.8252 207.838 28.0018C209.131 28.2668 210.157 28.6202 210.871 28.9293C211.584 29.2827 212.119 29.6802 212.432 30.2102C212.744 30.696 212.878 31.3143 212.878 32.1093C212.878 33.3018 212.387 34.2735 211.361 35.0243C210.335 35.7752 208.997 36.1285 207.303 36.1285C206.366 36.0843 205.519 35.996 204.716 35.7752Z" fill="white"/>
<path d="M32.1116 13.5599C34.0329 13.5599 35.5904 12.0175 35.5904 10.1149C35.5904 8.2123 34.0329 6.66992 32.1116 6.66992C30.1903 6.66992 28.6328 8.2123 28.6328 10.1149C28.6328 12.0175 30.1903 13.5599 32.1116 13.5599Z" fill="#FECF73"/>
<path d="M15.7885 37.808C14.6735 37.808 13.6031 37.278 12.9787 36.3063C11.9083 34.7605 12.3097 32.6405 13.8707 31.5805L30.9971 20.053C32.5581 18.993 34.6989 19.3905 35.7693 20.9363C36.8397 22.4821 36.4383 24.6021 34.8773 25.6621L17.7063 37.2338C17.1265 37.6313 16.4575 37.808 15.7885 37.808Z" fill="#6185EE"/>
<path d="M13.558 26.0155C12.443 26.0155 11.3726 25.4855 10.7482 24.5139C9.67785 22.968 10.0792 20.848 11.6402 19.788L20.2034 14.0022C21.7644 12.9422 23.9052 13.3397 24.9756 14.8855C26.046 16.4314 25.6446 18.5514 24.0836 19.6114L15.4758 25.3972C14.896 25.7947 14.227 26.0155 13.558 26.0155Z" fill="#73FEBB"/>
<path d="M22.1194 46.3314C24.0407 46.3314 25.5982 44.789 25.5982 42.8864C25.5982 40.9838 24.0407 39.4414 22.1194 39.4414C20.1981 39.4414 18.6406 40.9838 18.6406 42.8864C18.6406 44.789 20.1981 46.3314 22.1194 46.3314Z" fill="#FE7373"/>
</svg>