<svg width="36" height="36" viewBox="0 0 36 36" fill="none" xmlns="http://www.w3.org/2000/svg">
<path d="M18 36C27.9411 36 36 27.9411 36 18C36 8.05887 27.9411 0 18 0C8.05887 0 0 8.05887 0 18C0 27.9411 8.05887 36 18 36Z" fill="#363E51"/>
<path d="M23.1296 10.4417C24.236 10.4417 25.133 9.54474 25.133 8.43831C25.133 7.33188 24.236 6.43494 23.1296 6.43494C22.0232 6.43494 21.1262 7.33188 21.1262 8.43831C21.1262 9.54474 22.0232 10.4417 23.1296 10.4417Z" fill="#FECF73"/>
<path d="M13.6908 24.5869C13.0534 24.5869 12.4463 24.2834 12.0517 23.737C11.4446 22.8264 11.6874 21.6122 12.5677 21.0051L22.4631 14.2665C23.3738 13.6594 24.5879 13.9023 25.195 14.7825C25.8021 15.6932 25.5593 16.9073 24.679 17.5144L14.8139 24.253C14.4497 24.4655 14.0854 24.5869 13.6908 24.5869Z" fill="#6185EE"/>
<path d="M12.4157 17.6964C11.7782 17.6964 11.1711 17.3928 10.7765 16.8465C10.1695 15.9358 10.4123 14.7217 11.2926 14.1146L16.2403 10.7453C17.1509 10.1382 18.3651 10.381 18.9721 11.2613C19.5792 12.1719 19.3364 13.3861 18.4561 13.9932L13.5388 17.3625C13.1745 17.6053 12.8103 17.6964 12.4157 17.6964Z" fill="#73FEBB"/>
<path d="M17.3625 29.5651C18.4689 29.5651 19.3659 28.6682 19.3659 27.5617C19.3659 26.4553 18.4689 25.5583 17.3625 25.5583C16.2561 25.5583 15.3591 26.4553 15.3591 27.5617C15.3591 28.6682 16.2561 29.5651 17.3625 29.5651Z" fill="#FE7373"/>
</svg>
