<svg width="10" height="30" viewBox="0 0 10 30" fill="none" xmlns="http://www.w3.org/2000/svg">
  <path fill-rule="evenodd" clip-rule="evenodd" d="M8.754 29.5058C8.48726 29.6395 8.17835 29.6617 7.89522 29.5676C7.61208 29.4735 7.37793 29.2708 7.24425 29.004L0.494253 15.504C0.41586 15.3476 0.375041 15.175 0.375041 15C0.375041 14.8251 0.415861 14.6525 0.494254 14.496L7.24425 0.996044C7.30974 0.862797 7.40096 0.74383 7.51264 0.646002C7.62432 0.548174 7.75426 0.473419 7.89498 0.42605C8.03569 0.378679 8.18438 0.359632 8.33249 0.370003C8.4806 0.380373 8.62519 0.419958 8.75792 0.486475C8.89066 0.552992 9.00892 0.645122 9.10588 0.757561C9.20284 0.869997 9.27658 1.00052 9.32286 1.14159C9.36914 1.28266 9.38704 1.4315 9.37552 1.57953C9.364 1.72755 9.3233 1.87183 9.25575 2.00405L2.76 15L9.25575 27.996C9.38941 28.2628 9.41164 28.5717 9.31754 28.8548C9.22345 29.138 9.02074 29.3721 8.754 29.5058Z" fill="white"/>
</svg>
