<svg width="15" height="15" viewBox="0 0 15 15" fill="none" xmlns="http://www.w3.org/2000/svg">
<rect width="10" height="8.33333" transform="translate(2.5 3.33203)" fill="white"/>
<path d="M7.49968 0.832031C6.18113 0.832031 4.8922 1.22302 3.79588 1.95557C2.69955 2.68811 1.84506 3.7293 1.34048 4.94747C0.835896 6.16565 0.703874 7.50609 0.961109 8.7993C1.21834 10.0925 1.85328 11.2804 2.78563 12.2127C3.71798 13.1451 4.90587 13.78 6.19907 14.0373C7.49228 14.2945 8.83272 14.1625 10.0509 13.6579C11.2691 13.1533 12.3103 12.2988 13.0428 11.2025C13.7753 10.1062 14.1663 8.81724 14.1663 7.4987C14.1643 5.7312 13.4613 4.03667 12.2115 2.78686C10.9617 1.53705 9.26717 0.834031 7.49968 0.832031V0.832031ZM8.70279 9.85114C8.74524 9.89214 8.77909 9.94118 8.80239 9.99541C8.82568 10.0496 8.83794 10.1079 8.83845 10.167C8.83897 10.226 8.82772 10.2845 8.80537 10.3391C8.78303 10.3937 8.75003 10.4434 8.7083 10.4851C8.66657 10.5268 8.61694 10.5598 8.56232 10.5822C8.5077 10.6045 8.44918 10.6158 8.39016 10.6153C8.33115 10.6147 8.27283 10.6025 8.21861 10.5792C8.16438 10.5559 8.11534 10.522 8.07434 10.4796L5.40768 7.81292C5.32436 7.72957 5.27755 7.61655 5.27755 7.4987C5.27755 7.38085 5.32436 7.26782 5.40768 7.18447L8.07434 4.51781C8.15817 4.43685 8.27043 4.39205 8.38697 4.39306C8.5035 4.39408 8.61497 4.44082 8.69737 4.52322C8.77978 4.60563 8.82652 4.7171 8.82753 4.83363C8.82854 4.95016 8.78375 5.06243 8.70279 5.14625L6.35034 7.4987L8.70279 9.85114Z" fill="#6185EE"/>
</svg>
