<svg width="15" height="15" viewBox="0 0 15 15" fill="none" xmlns="http://www.w3.org/2000/svg">
<rect width="10" height="8.33333" transform="translate(2.5 3.33203)" fill="white"/>
<path d="M7.50032 0.832031C8.81887 0.832031 10.1078 1.22302 11.2041 1.95557C12.3005 2.68811 13.1549 3.7293 13.6595 4.94747C14.1641 6.16565 14.2961 7.50609 14.0389 8.7993C13.7817 10.0925 13.1467 11.2804 12.2144 12.2127C11.282 13.1451 10.0941 13.78 8.80093 14.0373C7.50772 14.2945 6.16728 14.1625 4.9491 13.6579C3.73093 13.1533 2.68974 12.2988 1.95719 11.2025C1.22465 10.1062 0.833659 8.81724 0.833659 7.4987C0.835659 5.7312 1.53868 4.03667 2.78849 2.78686C4.0383 1.53705 5.73283 0.834031 7.50032 0.832031V0.832031ZM6.29721 9.85114C6.25476 9.89214 6.22091 9.94118 6.19761 9.99541C6.17432 10.0496 6.16206 10.1079 6.16155 10.167C6.16103 10.226 6.17228 10.2845 6.19463 10.3391C6.21697 10.3937 6.24997 10.4434 6.2917 10.4851C6.33343 10.5268 6.38306 10.5598 6.43768 10.5822C6.4923 10.6045 6.55082 10.6158 6.60984 10.6153C6.66885 10.6147 6.72717 10.6025 6.78139 10.5792C6.83562 10.5559 6.88466 10.522 6.92566 10.4796L9.59232 7.81292C9.67564 7.72957 9.72245 7.61655 9.72245 7.4987C9.72245 7.38085 9.67564 7.26782 9.59232 7.18447L6.92566 4.51781C6.84183 4.43685 6.72957 4.39205 6.61303 4.39306C6.4965 4.39408 6.38503 4.44082 6.30263 4.52322C6.22022 4.60563 6.17348 4.7171 6.17247 4.83363C6.17146 4.95016 6.21625 5.06243 6.29721 5.14625L8.64966 7.4987L6.29721 9.85114Z" fill="#6185EE"/>
</svg>
