<svg width="10" height="30" viewBox="0 0 10 30" fill="none" xmlns="http://www.w3.org/2000/svg">
  <path fill-rule="evenodd" clip-rule="evenodd" d="M1.246 0.494206C1.51274 0.360546 1.82165 0.338319 2.10478 0.432415C2.38792 0.52651 2.62207 0.729221 2.75575 0.995956L9.50575 14.496C9.58414 14.6524 9.62496 14.825 9.62496 15C9.62496 15.1749 9.58414 15.3475 9.50575 15.504L2.75575 29.004C2.69026 29.1372 2.59905 29.2562 2.48736 29.354C2.37568 29.4518 2.24574 29.5266 2.10503 29.5739C1.96432 29.6213 1.81562 29.6404 1.66751 29.63C1.51941 29.6196 1.37482 29.58 1.24208 29.5135C1.10934 29.447 0.991084 29.3549 0.894124 29.2424C0.797164 29.13 0.72342 28.9995 0.677141 28.8584C0.630863 28.7173 0.612966 28.5685 0.624484 28.4205C0.636001 28.2725 0.676705 28.1282 0.744248 27.996L7.24 15L0.744248 2.00396C0.610588 1.73721 0.588361 1.4283 0.682456 1.14517C0.776552 0.862039 0.979263 0.627882 1.246 0.494206Z" fill="white"/>
</svg>