<svg width="144" height="91" viewBox="0 0 144 91" fill="none" xmlns="http://www.w3.org/2000/svg">
<path d="M6.50109 69.7461H5.8954H3.84951H1.77669H0V71.0282L1.80361 71.2171C1.85745 73.2009 1.85745 75.1983 1.85745 77.1821V78.0728C1.85745 80.0836 1.85745 82.081 1.80361 84.0378L0 84.2402V85.5223H1.77669H5.92232H8.04897V84.2402L5.90886 84.0243C5.88194 82.4318 5.88194 80.8664 5.85502 79.4763H6.52801C11.737 79.4763 13.4867 77.2361 13.4867 74.4695C13.4733 71.622 11.4947 69.7461 6.50109 69.7461ZM6.55493 78.1268H5.8281V77.1551C5.8281 75.1038 5.8281 73.066 5.88194 71.0956H6.46071C8.56044 71.0956 9.73144 72.2293 9.73144 74.456C9.73144 76.6558 8.69504 78.1268 6.55493 78.1268Z" fill="#00AAFF"/>
<path d="M25.1969 78.6134C25.1969 75.7118 23.4202 73.5391 20.2571 73.5391C17.1748 73.5391 14.0925 75.7118 14.0925 79.72C14.0925 83.5797 16.5691 85.8739 20.0418 85.8739C22.3569 85.8739 24.0932 84.9562 25.0488 83.0669L24.2278 82.2976C23.5009 83.0399 22.6126 83.6067 21.307 83.6067C19.6245 83.6067 18.2516 82.4461 18.0766 79.9089H25.0354C25.1565 79.5041 25.1969 79.1397 25.1969 78.6134ZM20.1898 78.6404H18.0901C18.2112 75.7118 19.0727 74.7806 19.9879 74.7806C20.8494 74.7806 21.63 75.5769 21.63 77.1424C21.6569 78.222 21.3474 78.6404 20.1898 78.6404Z" fill="#00AAFF"/>
<path d="M34.9147 73.5625C33.7033 73.5625 32.3304 74.6017 31.6843 76.707L31.4689 73.8324L31.0652 73.5625L26.3677 75.155V76.0997L27.8348 76.3156C27.8886 77.2873 27.9021 77.7596 27.9021 79.0956V80.4992C27.9021 81.5113 27.9021 82.9823 27.8752 84.143L26.5561 84.4129V85.5195H27.8348H31.7651H33.6225V84.4129L31.7247 84.008C31.6978 82.8474 31.6978 81.4439 31.6978 80.4857V78.8932C31.967 77.7056 32.5861 76.653 33.3129 75.9647L33.461 76.1536C34.0398 76.8959 34.5916 77.2603 35.3185 77.2603C36.2876 77.2603 36.9605 76.5585 37.0009 75.3034C36.7856 74.1158 35.9511 73.5625 34.9147 73.5625Z" fill="#00AAFF"/>
<path d="M44.1348 74.7941C44.3097 74.7941 44.4443 74.7941 44.5924 74.8211L44.7674 76.0357C44.8885 77.7092 45.6557 78.303 46.5979 78.303C47.4459 78.303 47.9439 77.9116 48.2131 77.0479C48.0381 75.145 46.2614 73.5391 43.731 73.5391C40.1641 73.5391 37.2703 75.8063 37.2703 79.747C37.2703 83.7821 39.9622 85.8874 43.2195 85.8874C45.4807 85.8874 47.2171 84.9427 48.1323 82.9859L47.3113 82.2571C46.6114 83.0534 45.7499 83.6067 44.6193 83.6067C42.6003 83.6067 41.2678 82.0817 41.2678 79.3016C41.2544 76.0762 42.7619 74.7941 44.1348 74.7941Z" fill="#00AAFF"/>
<path d="M60.5018 78.6134C60.5018 75.7118 58.7251 73.5391 55.5621 73.5391C52.4798 73.5391 49.3975 75.7118 49.3975 79.72C49.3975 83.5797 51.8741 85.8739 55.3467 85.8739C57.6618 85.8739 59.3981 84.9562 60.3537 83.0669L59.5327 82.2976C58.8059 83.0399 57.9175 83.6067 56.6119 83.6067C54.9294 83.6067 53.5565 82.4461 53.3816 79.9089H60.3403C60.4749 79.5041 60.5018 79.1397 60.5018 78.6134ZM55.5082 78.6404H53.4085C53.5296 75.7118 54.391 74.7806 55.3063 74.7806C56.1677 74.7806 56.9484 75.5769 56.9484 77.1424C56.9619 78.222 56.6658 78.6404 55.5082 78.6404Z" fill="#00AAFF"/>
<path d="M70.2063 73.5625C68.8334 73.5625 67.6759 74.0888 66.6664 75.155L66.5453 73.7784L66.1549 73.5625L61.4844 75.155V76.0997L62.9515 76.3156C63.0053 77.2872 63.0188 77.7866 63.0188 79.0956V85.6005C63.0188 86.7881 62.9919 88.0701 62.965 89.5816L61.619 89.865V90.9986H62.9246H66.7741H68.295V89.865L66.7472 89.5006C66.7202 88.0296 66.6933 86.7476 66.6933 85.587V84.6018C67.4874 85.4655 68.4566 85.9108 69.7083 85.9108C72.4003 85.9108 74.8096 83.5626 74.8096 79.6759C74.8769 75.6543 72.8041 73.5625 70.2063 73.5625ZM68.4027 83.846C67.7701 83.846 67.299 83.6301 66.8145 83.2118V76.2751C67.3259 75.8702 67.8778 75.5733 68.4835 75.5733C69.9102 75.5733 70.8659 76.8284 70.8659 79.6759C70.8524 82.564 69.8429 83.846 68.4027 83.846Z" fill="#00AAFF"/>
<path d="M82.3472 83.9308C81.6203 83.9308 81.1223 83.418 81.1223 82.2844V75.5501H83.6528V73.9307H81.1492L81.2031 70.5703H78.7669L77.5555 73.9307L75.7922 74.1466V75.5771H77.3401V80.1656C77.3401 81.1103 77.3132 81.7311 77.3132 82.5813C77.3132 84.943 78.5919 85.9146 80.732 85.9146C82.4683 85.9146 83.5989 85.2129 84.2315 84.0118L83.6528 83.4315C83.1682 83.7554 82.7913 83.9308 82.3472 83.9308Z" fill="#00AAFF"/>
<path d="M87.9867 71.7432C89.1174 71.7432 90.0057 70.947 90.0057 69.8404C90.0057 68.7337 89.1174 67.9375 87.9867 67.9375C86.8561 67.9375 85.9678 68.7337 85.9678 69.8404C85.9678 70.947 86.8561 71.7432 87.9867 71.7432Z" fill="#00AAFF"/>
<path d="M89.9383 84.1582C89.9114 82.9706 89.9114 81.4996 89.9114 80.4875V77.3025L89.9787 73.8207L89.5749 73.5508L84.5813 75.1432V76.0879L86.0753 76.3039C86.1292 77.2755 86.1426 78.0178 86.1426 79.3268V80.4605C86.1426 81.4726 86.1426 82.9301 86.1157 84.1042L84.8101 84.3876V85.4943H86.0619H89.9921H91.1497V84.3876L89.9383 84.1582Z" fill="#00AAFF"/>
<path d="M102.496 84.1436H98.3239C98.27 82.1328 98.27 80.1625 98.27 78.4485V77.1665C98.27 75.1557 98.27 73.1853 98.3239 71.2015L100.329 71.0125V69.7305H98.3508H94.2052H92.4285V71.0125L94.2321 71.2015C94.2859 73.1853 94.2859 75.1826 94.2859 77.1665V78.57C94.2859 80.1895 94.2859 82.0923 94.2321 84.0492L92.4285 84.2381V85.5202H94.2052H96.278H98.3508H104.838L105.081 80.8103H103.183L102.496 84.1436Z" fill="white"/>
<path d="M116.993 84.1579C116.656 84.1579 116.441 83.915 116.441 83.4291V78.0444C116.441 74.8325 115.229 73.5234 112.147 73.5234C108.701 73.5234 106.804 74.873 106.656 76.8838C106.844 77.68 107.396 78.0984 108.271 78.0984C109.186 78.0984 109.953 77.4506 110.034 75.8717L110.155 74.8055C110.397 74.7785 110.613 74.7785 110.828 74.7785C112.376 74.7785 112.78 75.4128 112.78 77.5316V78.3008C112.107 78.4763 111.434 78.6652 110.949 78.8137C107.261 79.8798 106.319 81.0809 106.319 82.7948C106.319 84.7787 107.625 85.8583 109.455 85.8583C111.097 85.8583 111.838 85.2105 112.901 84.0904C113.237 85.197 114.112 85.8313 115.499 85.8313C116.939 85.8313 117.787 85.3185 118.366 84.0229L117.733 83.5911C117.45 84.0229 117.262 84.1579 116.993 84.1579ZM111.286 83.9419C110.465 83.9419 109.846 83.3886 109.846 82.174C109.846 81.0404 110.545 80.2442 111.649 79.7853C111.932 79.6369 112.349 79.5154 112.807 79.3805V83.2672C112.08 83.78 111.716 83.9419 111.286 83.9419Z" fill="white"/>
<path d="M127.505 73.5651C126.159 73.5651 125.028 74.0779 124.005 75.1171V71.6892L124.1 68.3289L123.709 68.0859L118.796 69.1791V70.1912L120.29 70.3802V80.5288C120.29 81.5409 120.29 83.0119 120.264 84.1725L118.958 84.4425V85.5491L123.467 85.8595L123.871 84.429C124.692 85.4006 125.701 85.873 127.047 85.873C129.739 85.873 132.149 83.4843 132.149 79.6111C132.175 75.6434 130.103 73.5651 127.505 73.5651ZM125.715 83.8486C125.069 83.8486 124.557 83.6057 124.073 83.1739V76.3317C124.584 75.9268 125.163 75.6029 125.755 75.6029C127.182 75.6029 128.137 76.831 128.137 79.6651C128.151 82.5261 127.115 83.8486 125.715 83.8486Z" fill="white"/>
<path d="M139.982 78.1659L138.824 77.8285C137.182 77.3157 136.819 76.8568 136.819 76.209C136.819 75.3453 137.546 74.8595 138.596 74.8595C139.148 74.8595 139.538 74.9135 139.915 75.0484L140.399 77.1267H142.297L142.472 74.4951C141.247 73.8608 140.09 73.5234 138.69 73.5234C135.46 73.5234 133.696 75.2374 133.696 77.4371C133.696 79.2455 134.733 80.4601 136.59 81.0134L137.896 81.3778C139.457 81.8367 139.915 82.3495 139.915 83.0917C139.915 84.0634 139.148 84.5223 137.775 84.5223C137.129 84.5223 136.55 84.4008 135.971 84.1849L135.567 81.8232H133.642L133.589 84.7652C134.84 85.5074 136.186 85.8718 137.761 85.8718C141.14 85.8718 143.159 84.4008 143.159 81.8906C143.159 80.1092 142.27 78.8677 139.982 78.1659Z" fill="white"/>
<path d="M68.6721 31.35V28.6914H65.5225V29.2042L63.3555 31.35H68.6721Z" fill="white"/>
<path d="M68.6719 34.9114V32.3203H62.3862L61.8343 32.8736C61.9016 33.0896 61.9555 33.3325 61.9555 33.5754C61.9555 34.0612 61.8074 34.5201 61.592 34.898H68.6719V34.9114Z" fill="white"/>
<path d="M57.4869 13.6317V10.5547H49.0072C48.7245 11.081 48.4553 11.6208 48.2131 12.1741L48.065 12.5385C47.9169 12.9029 47.7823 13.2673 47.6343 13.6452H57.4869V13.6317Z" fill="white"/>
<path d="M63.0459 24.2776V21.457H57.5004L56.2217 22.7391C56.289 22.955 56.3429 23.1979 56.3429 23.4409C56.3429 23.7243 56.289 24.0212 56.1948 24.2911H63.0459V24.2776Z" fill="white"/>
<path d="M76.7344 24.2794H83.6258C83.5316 24.0095 83.4777 23.726 83.4777 23.4291C83.4777 23.1862 83.5316 22.9433 83.5989 22.7274L82.3202 21.4453H76.7344V24.2794Z" fill="white"/>
<path d="M57.4869 6.5436V3.30469H55.9929C54.4988 4.19539 53.1259 5.28852 51.9146 6.5436H57.4869Z" fill="white"/>
<path d="M63.0457 20.7297V17.8281H59.9364V19.0427L58.2271 20.7297H63.0457Z" fill="white"/>
<path d="M79.6552 1.86372C78.7399 1.45886 77.7573 1.13497 76.7344 0.851562V2.99734H79.9109V1.98518C79.8167 1.9312 79.7494 1.89071 79.6552 1.86372Z" fill="white"/>
<path d="M71.1216 34.9136H78.2284C77.9861 34.5222 77.8649 34.0634 77.8649 33.591C77.8649 33.3481 77.9188 33.1052 77.9861 32.8893L77.4342 32.3359H71.1485V34.9271H71.1216V34.9136Z" fill="white"/>
<path d="M68.6853 17.8281H65.5088V20.7566H68.6853V17.8281Z" fill="white"/>
<path d="M68.6853 14.1836H65.5088V17.1796H68.6853V14.1836Z" fill="white"/>
<path d="M74.2981 17.8281H71.1216V20.7566H74.2981V17.8281Z" fill="white"/>
<path d="M68.6853 3.30469H65.5088V6.5436H68.6853V3.30469Z" fill="white"/>
<path d="M65.5089 2.996H68.6584V0C67.5951 0.026991 66.5318 0.121459 65.4819 0.26991V2.996H65.5089Z" fill="white"/>
<path d="M68.6853 10.5547H65.5088V13.6317H68.6853V10.5547Z" fill="white"/>
<path d="M68.6853 6.9375H65.5088V10.0954H68.6853V6.9375Z" fill="white"/>
<path d="M52.7625 38.4594H67.649C67.8913 38.0275 68.2278 37.6362 68.6585 37.3932V35.9492H60.3269C60.0442 36.0707 59.7212 36.1247 59.3847 36.1247C59.0482 36.1247 58.7386 36.0572 58.4425 35.9492H52.0356L52.4933 36.678C52.7625 37.0828 52.8567 37.5687 52.8029 38.0545L52.7625 38.4594Z" fill="white"/>
<path d="M56.8408 50.4609L59.1963 52.6337H89.2924C89.9385 52.2963 90.5173 51.8375 91.0018 51.2572C91.1903 51.0143 91.3922 50.7443 91.5268 50.4879H56.8408V50.4609Z" fill="white"/>
<path d="M81.3376 35.9627C81.055 36.0842 80.7319 36.1382 80.3954 36.1382C80.059 36.1382 79.7494 36.0707 79.4533 35.9627H71.0947V37.4067C71.5254 37.6497 71.8889 38.014 72.1042 38.4729H91.7152C91.9305 38.014 92.2939 37.6227 92.7785 37.3797L95.3089 36.1921C95.457 36.1247 95.5916 36.0437 95.7127 35.9492H81.3376V35.9627Z" fill="white"/>
<path d="M55.3198 49.084H92.092C92.267 48.4497 92.3074 47.8289 92.267 47.1811L92.2401 46.8438H52.8567L55.3198 49.084Z" fill="white"/>
<path d="M82.9259 33.6049C82.9259 34.0907 82.7779 34.5496 82.5625 34.9274H96.4934C96.6415 34.4956 96.6415 33.9827 96.4665 33.5239L95.8339 32.3633H82.5625C82.8048 32.7142 82.9259 33.146 82.9259 33.6049Z" fill="white"/>
<path d="M82.3472 6.5436H86.1832C85.0795 5.31551 83.7739 4.19539 82.3741 3.30469H82.3472V6.5436Z" fill="white"/>
<path d="M88.5386 23.4274C88.5386 23.7108 88.4848 24.0077 88.3906 24.2776H91.594L91.3113 21.457H87.5964C88.1752 21.9159 88.5386 22.6311 88.5386 23.4274Z" fill="white"/>
<path d="M82.3472 18.0167L85.0392 20.7158H91.2307L91.0422 18.786C91.0422 18.4486 91.0153 18.1382 90.9884 17.8008H82.3337V18.0167H82.3472Z" fill="white"/>
<path d="M60.7844 54.1172L63.0726 56.1955H78.4168L78.7533 55.3723C79.0225 54.738 79.5474 54.2791 80.18 54.1172H60.7844Z" fill="white"/>
<path d="M74.2981 14.1836H71.1216V17.1796H74.2981V14.1836Z" fill="white"/>
<path d="M56.8543 33.6027C56.8543 33.1439 56.9755 32.712 57.1908 32.3477H49.9629L50.2725 33.1169C50.3263 33.2384 50.3936 33.3868 50.4609 33.4813L51.3762 34.9118H57.2312C57.0024 34.5204 56.8543 34.0886 56.8543 33.6027Z" fill="white"/>
<path d="M63.0457 25.0742H55.7505C55.2929 25.6275 54.593 25.9649 53.8257 25.9649C53.0585 25.9649 52.3586 25.6275 51.901 25.0742H47.2439C47.4189 25.6545 47.6073 26.2348 47.8227 26.8151L48.213 27.8003H63.0592V25.0742H63.0457Z" fill="white"/>
<path d="M64.7417 57.7344L66.9356 59.7452H76.9632L77.7843 57.7344H64.7417Z" fill="white"/>
<path d="M52.0626 43.2148L51.7261 45.5631H92.1055L91.8902 43.2148H52.0626Z" fill="white"/>
<path d="M57.487 18.0171V17.8281H46.6922C46.5711 18.7998 46.5441 19.758 46.598 20.7566H54.8085L57.487 18.0171Z" fill="white"/>
<path d="M75.5097 63.2931L76.2769 61.3633H68.6855L70.7853 63.2931H75.5097Z" fill="white"/>
<path d="M72.6697 64.9805L74.2176 66.411L74.7963 64.9805H72.6697Z" fill="white"/>
<path d="M57.4867 17.1796V14.1836H47.4592C47.1496 15.1688 46.9073 16.1674 46.7593 17.1796H57.4867Z" fill="white"/>
<path d="M51.4434 24.2794C51.3492 24.0095 51.2953 23.726 51.2953 23.4291C51.2953 22.6329 51.6587 21.9042 52.2375 21.4453H46.6248C46.6921 22.39 46.8401 23.3347 47.0555 24.2659H51.4434V24.2794Z" fill="white"/>
<path d="M58.1867 31.35C58.5501 31.1611 58.9539 31.0396 59.4115 31.0396C59.6538 31.0396 59.8961 31.0936 60.1114 31.1611L62.5746 28.6914H48.5898L49.6263 31.35H58.1867Z" fill="white"/>
<path d="M57.4868 10.0954V6.9375H51.578C50.7165 7.90917 49.9359 8.96182 49.2898 10.0954H57.4868Z" fill="white"/>
<path d="M57.4869 2.99365V2.50781C57.1773 2.65626 56.8543 2.81821 56.5447 2.99365H57.4869Z" fill="white"/>
<path d="M79.9109 10.5547H76.7344V13.6317H79.9109V10.5547Z" fill="white"/>
<path d="M79.9109 3.30469H76.7344V6.5436H79.9109V3.30469Z" fill="white"/>
<path d="M79.9109 6.9375H76.7344V10.0954H79.9109V6.9375Z" fill="white"/>
<path d="M82.3472 14.1836V17.1796H90.9211C90.7999 16.1674 90.6115 15.1688 90.3423 14.1836H82.3472Z" fill="white"/>
<path d="M82.3472 10.5547V13.6317H90.2077C89.8712 12.5655 89.4674 11.5534 88.9559 10.5682H82.3472V10.5547Z" fill="white"/>
<path d="M82.3472 6.9375V10.0954H88.6867C88.0541 8.96182 87.3408 7.89568 86.5197 6.9375H82.3472Z" fill="white"/>
<path d="M87.9464 25.0742C87.4887 25.6275 86.7888 25.9649 86.0216 25.9649C85.2544 25.9649 84.5545 25.6275 84.0969 25.0742H76.7478V27.8273H93.4918L92.0516 25.0742H87.9464Z" fill="white"/>
<path d="M69.0219 42.0094C68.0528 41.6451 67.3529 40.7274 67.3529 39.6207V39.5938H52.601L52.2375 42.0094H69.0219Z" fill="white"/>
<path d="M72.4271 39.5938V39.6207C72.4271 40.7139 71.7272 41.6451 70.7581 42.0094H91.7957L91.5804 39.5938H72.4271Z" fill="white"/>
<path d="M77.2458 28.707L79.709 31.1767C79.9243 31.1092 80.1666 31.0552 80.4089 31.0552C80.8396 31.0552 81.2703 31.1767 81.6337 31.3656H95.3627L93.9629 28.707H77.2458Z" fill="white"/>
<path d="M74.2981 21.457H71.1216V24.2776H74.2981V21.457Z" fill="white"/>
<path d="M79.9109 14.1836H76.7344V17.1796H79.9109V14.1836Z" fill="white"/>
<path d="M63.0727 6.9375H59.9365V10.0954H63.0727V6.9375Z" fill="white"/>
<path d="M63.0458 0.675781C61.9556 0.9187 60.9192 1.18861 59.9097 1.526V2.997H63.0458V0.675781Z" fill="white"/>
<path d="M63.0727 10.5547H59.9365V13.6317H63.0727V10.5547Z" fill="white"/>
<path d="M71.1216 0.0273438V2.99635H74.2981V0.33774C73.2482 0.175794 72.1849 0.0678302 71.1216 0.0273438Z" fill="white"/>
<path d="M74.2981 6.9375H71.1216V10.0954H74.2981V6.9375Z" fill="white"/>
<path d="M74.2981 3.30469H71.1216V6.5436H74.2981V3.30469Z" fill="white"/>
<path d="M63.0727 3.30469H59.9365V6.5436H63.0727V3.30469Z" fill="white"/>
<path d="M74.2981 10.5547H71.1216V13.6317H74.2981V10.5547Z" fill="white"/>
<path d="M74.2981 25.0742H71.1216V27.8273H74.2981V25.0742Z" fill="white"/>
<path d="M79.9109 17.8281H76.7344V20.7297H81.6068L79.9243 19.0427V17.8281H79.9109Z" fill="white"/>
<path d="M74.2981 28.707H71.1216V31.3656H76.4517L74.2981 29.2064V28.707Z" fill="white"/>
<path d="M68.6853 21.457H65.5088V24.2776H68.6853V21.457Z" fill="white"/>
<path d="M68.6853 25.0742H65.5088V27.8273H68.6853V25.0742Z" fill="white"/>
<path d="M63.0727 14.1836H59.9365V17.1796H63.0727V14.1836Z" fill="white"/>
</svg>
